<?xml version="1.0" encoding="utf-8"?>
<!-- Generator: Adobe Illustrator 16.0.0, SVG Export Plug-In . SVG Version: 6.00 Build 0)  -->
<!DOCTYPE svg PUBLIC "-//W3C//DTD SVG 1.1//EN" "http://www.w3.org/Graphics/SVG/1.1/DTD/svg11.dtd" [
	<!ENTITY ns_extend "http://ns.adobe.com/Extensibility/1.0/">
	<!ENTITY ns_ai "http://ns.adobe.com/AdobeIllustrator/10.0/">
	<!ENTITY ns_graphs "http://ns.adobe.com/Graphs/1.0/">
	<!ENTITY ns_vars "http://ns.adobe.com/Variables/1.0/">
	<!ENTITY ns_imrep "http://ns.adobe.com/ImageReplacement/1.0/">
	<!ENTITY ns_sfw "http://ns.adobe.com/SaveForWeb/1.0/">
	<!ENTITY ns_custom "http://ns.adobe.com/GenericCustomNamespace/1.0/">
	<!ENTITY ns_adobe_xpath "http://ns.adobe.com/XPath/1.0/">
]>
<svg version="1.1" id="Layer_1" xmlns:x="&ns_extend;" xmlns:i="&ns_ai;" xmlns:graph="&ns_graphs;"
	 xmlns="http://www.w3.org/2000/svg" xmlns:xlink="http://www.w3.org/1999/xlink" x="0px" y="0px" width="118.096px"
	 height="125.014px" viewBox="57.997 55.007 118.096 125.014" enable-background="new 57.997 55.007 118.096 125.014"
	 xml:space="preserve">
<metadata>
	<sfw  xmlns="&ns_sfw;">
		<slices></slices>
		<sliceSourceBounds  width="118.096" height="125.014" y="-103.514" x="89.5" bottomLeftOrigin="true"></sliceSourceBounds>
		<optimizationSettings>
			<targetSettings  targetSettingsID="0" fileFormat="PNG24Format">
				<PNG24Format  transparency="true" interlaced="false" filtered="false" noMatteColor="false" matteColor="#FFFFFF">
					</PNG24Format>
			</targetSettings>
		</optimizationSettings>
	</sfw>
</metadata>
<g>
	<path fill="#F84242" d="M161.092,55.007c-8.286,0-15.003,6.716-15.003,15.001s6.717,15.001,15.003,15.001
		c8.284,0,15.001-6.716,15.001-15.001S169.376,55.007,161.092,55.007z M161.099,81.021c-6.075,0-11-4.925-11-11s4.925-11,11-11
		c6.074,0,11.001,4.925,11.001,11S167.173,81.021,161.099,81.021z"/>
	<path fill="#F84242" d="M161.067,61.927c-4.418,0-8,3.582-8,8s3.582,8,8,8c4.419,0,8.001-3.582,8.001-8
		S165.486,61.927,161.067,61.927z M161.099,74.021c-2.21,0-4-1.79-4-4c0-2.209,1.79-4,4-4c2.209,0,3.999,1.791,3.999,4
		C165.098,72.231,163.308,74.021,161.099,74.021z"/>
</g>
<g>
	<path fill="#F84242" d="M97.795,129.3c1.026,0.411,2.188-0.087,2.599-1.112l2.971-7.425c0.408-1.024-0.09-2.188-1.114-2.598
		c-1.024-0.411-2.188,0.088-2.599,1.111l-2.969,7.425C96.272,127.726,96.771,128.89,97.795,129.3z"/>
	<path fill="#F84242" d="M92.867,132.733c0.682,0.867,1.938,1.019,2.807,0.336c0.867-0.684,1.017-1.938,0.335-2.807l-4.945-6.285
		c-0.682-0.867-1.939-1.018-2.807-0.334c-0.869,0.683-1.02,1.938-0.336,2.805L92.867,132.733z"/>
	<path fill="#F84242" d="M97.875,136.787c-0.157-1.095-1.17-1.852-2.263-1.694l-7.916,1.141c-1.09,0.157-1.85,1.17-1.691,2.264
		c0.157,1.093,1.169,1.853,2.262,1.693l7.916-1.141C97.274,138.894,98.031,137.881,97.875,136.787z"/>
	<path fill="#F84242" d="M102.198,136.741c-1.026-0.41-2.189,0.088-2.6,1.112l-2.97,7.425c-0.41,1.025,0.089,2.188,1.114,2.599
		c1.023,0.411,2.188-0.088,2.599-1.112l2.97-7.423C103.722,138.317,103.224,137.153,102.198,136.741z"/>
	<path fill="#F84242" d="M107.126,133.311c-0.682-0.867-1.939-1.018-2.807-0.336c-0.869,0.684-1.019,1.94-0.336,2.809l4.945,6.283
		c0.682,0.867,1.939,1.018,2.807,0.334c0.867-0.681,1.019-1.938,0.336-2.806L107.126,133.311z"/>
	<path fill="#F84242" d="M113.99,127.545c-0.157-1.093-1.169-1.853-2.263-1.693l-7.916,1.141c-1.092,0.156-1.849,1.171-1.692,2.265
		c0.157,1.092,1.171,1.85,2.263,1.692l7.915-1.141C113.388,129.653,114.147,128.638,113.99,127.545z"/>
</g>
<g>
	<path fill="#F84242" d="M130.247,86.021c-8.284,0-15,6.716-15,15s6.716,15,15,15c8.283,0,15-6.716,15-15
		S138.531,86.021,130.247,86.021z M130.247,110.021c-1.657,0-3-1.343-3-3c0-1.656,1.343-3,3-3c1.656,0,3,1.344,3,3
		C133.247,108.678,131.903,110.021,130.247,110.021z M130.247,101.021c-3.312,0-6,2.688-6,6c0,3.313,2.688,6,6,6
		c-6.626,0-11.999-5.373-11.999-12s5.373-12,11.999-12c3.312,0,6,2.688,6,6C136.247,98.334,133.56,101.021,130.247,101.021z"/>
	<circle fill="#F84242" cx="129.997" cy="95.021" r="3"/>
</g>
<path fill="#F84242" d="M82.997,163.521c0-5.246-7.253-13.5-12.5-13.5s-12.5,8.253-12.5,13.5c0,8.622,5.975,11.891,11,12.421v2.579
	c0,0.829,0.671,1.5,1.5,1.5s1.5-0.671,1.5-1.5v-2.579C77.024,175.41,82.997,172.143,82.997,163.521z M71.997,172.968v-3.785
	c1.531-0.236,3.018-0.836,4.316-1.801c0.647-0.479,0.791-1.276,0.391-1.654c-0.402-0.38-1.085-0.315-1.58,0.046
	c-0.947,0.703-2.02,1.156-3.127,1.375v-2.966c1.531-0.236,3.018-0.836,4.316-1.801c0.647-0.479,0.791-1.276,0.391-1.654
	c-0.402-0.38-1.085-0.316-1.58,0.046c-0.947,0.703-2.02,1.156-3.127,1.373v-2.627c0-0.827-0.672-1.5-1.5-1.5s-1.5,0.673-1.5,1.5
	v2.627c-1.109-0.217-2.18-0.67-3.127-1.373c-0.494-0.362-1.178-0.427-1.58-0.046c-0.4,0.378-0.258,1.175,0.391,1.654
	c1.299,0.965,2.786,1.563,4.316,1.801v2.966c-1.109-0.218-2.18-0.672-3.127-1.375c-0.494-0.362-1.178-0.427-1.58-0.046
	c-0.4,0.378-0.258,1.175,0.391,1.654c1.299,0.965,2.786,1.563,4.316,1.801v3.785c-3.827-0.286-8-1.946-8-9.448
	c0-4.141,5.357-10.5,9.5-10.5s9.5,6.358,9.5,10.5C79.997,171.023,75.824,172.682,71.997,172.968z"/>
</svg>
